<svg width="42" height="33" viewBox="0 0 42 33" fill="none" xmlns="http://www.w3.org/2000/svg">
<path d="M30.9 11.1875L22.75 19.3375C21.7875 20.3 20.2125 20.3 19.25 19.3375L11.1 11.1875" stroke="#1F2732" stroke-width="1.5" stroke-miterlimit="10" stroke-linecap="round" stroke-linejoin="round"/>
<path d="M42 16.5C42 20.8761 39.7875 25.0729 35.8492 28.1673C31.911 31.2616 26.5695 33 21 33C15.4305 33 10.089 31.2616 6.15076 28.1673C2.2125 25.0729 8.40978e-07 20.8761 0 16.5H1.39617C1.39617 20.5851 3.46157 24.5029 7.138 27.3916C10.8144 30.2802 15.8007 31.903 21 31.903C26.1993 31.903 31.1856 30.2802 34.862 27.3916C38.5384 24.5029 40.6038 20.5851 40.6038 16.5H42Z" fill="#D9D9D9"/>
</svg>
