<svg width="24" height="24" viewBox="0 0 24 24" fill="none" xmlns="http://www.w3.org/2000/svg">
<path d="M7.48027 18.35L10.5803 20.75C10.9803 21.15 11.8803 21.35 12.4803 21.35H16.2803C17.4803 21.35 18.7803 20.45 19.0803 19.25L21.4803 11.95C21.9803 10.55 21.0803 9.35001 19.5803 9.35001H15.5803C14.9803 9.35001 14.4803 8.85001 14.5803 8.15001L15.0803 4.95001C15.2803 4.05001 14.6803 3.05001 13.7803 2.75001C12.9803 2.45001 11.9803 2.85001 11.5803 3.45001L7.48027 9.55001" stroke="#ADADAD" stroke-width="1.5" stroke-miterlimit="10"/>
<path d="M2.37988 18.35V8.55C2.37988 7.15 2.97988 6.65 4.37988 6.65H5.37988C6.77988 6.65 7.37988 7.15 7.37988 8.55V18.35C7.37988 19.75 6.77988 20.25 5.37988 20.25H4.37988C2.97988 20.25 2.37988 19.75 2.37988 18.35Z" stroke="#ADADAD" stroke-width="1.5" stroke-linecap="round" stroke-linejoin="round"/>
</svg>
