<svg width="25" height="25" viewBox="0 0 25 25" fill="none" xmlns="http://www.w3.org/2000/svg">
<path d="M15.1442 2.01929V12.1154C15.1442 13.226 14.2356 14.1347 13.125 14.1347H2.01923V6.05775C2.01923 3.8265 3.82644 2.01929 6.05769 2.01929H15.1442Z" stroke="white" stroke-width="1.21154" stroke-linecap="round" stroke-linejoin="round"/>
<path d="M22.2115 14.1346V17.1635C22.2115 18.8394 20.8586 20.1923 19.1827 20.1923H18.1731C18.1731 19.0818 17.2644 18.1731 16.1538 18.1731C15.0433 18.1731 14.1346 19.0818 14.1346 20.1923H10.0961C10.0961 19.0818 9.18749 18.1731 8.07692 18.1731C6.96634 18.1731 6.05769 19.0818 6.05769 20.1923H5.04807C3.37211 20.1923 2.01923 18.8394 2.01923 17.1635V14.1346H13.125C14.2356 14.1346 15.1442 13.226 15.1442 12.1154V5.0481H17.0019C17.7288 5.0481 18.3952 5.44186 18.7586 6.06782L20.4851 9.08656H19.1827C18.6274 9.08656 18.1731 9.54088 18.1731 10.0962V13.125C18.1731 13.6803 18.6274 14.1346 19.1827 14.1346H22.2115Z" stroke="white" stroke-width="1.21154" stroke-linecap="round" stroke-linejoin="round"/>
<path d="M8.07691 22.2116C9.1921 22.2116 10.0961 21.3075 10.0961 20.1923C10.0961 19.0771 9.1921 18.1731 8.07691 18.1731C6.96172 18.1731 6.05768 19.0771 6.05768 20.1923C6.05768 21.3075 6.96172 22.2116 8.07691 22.2116Z" stroke="white" stroke-width="1.21154" stroke-linecap="round" stroke-linejoin="round"/>
<path d="M16.1539 22.2116C17.2691 22.2116 18.1731 21.3075 18.1731 20.1923C18.1731 19.0771 17.2691 18.1731 16.1539 18.1731C15.0387 18.1731 14.1346 19.0771 14.1346 20.1923C14.1346 21.3075 15.0387 22.2116 16.1539 22.2116Z" stroke="white" stroke-width="1.21154" stroke-linecap="round" stroke-linejoin="round"/>
<path d="M22.2116 12.1153V14.1345H19.1827C18.6274 14.1345 18.1731 13.6802 18.1731 13.1249V10.096C18.1731 9.54075 18.6274 9.08643 19.1827 9.08643H20.4851L22.2116 12.1153Z" stroke="white" stroke-width="1.21154" stroke-linecap="round" stroke-linejoin="round"/>
</svg>
