<svg width="27" height="21" viewBox="0 0 27 21" fill="none" xmlns="http://www.w3.org/2000/svg">
<path d="M25.75 12V15.75C25.75 17.825 24.075 19.5 22 19.5H20.75C20.75 18.125 19.625 17 18.25 17C16.875 17 15.75 18.125 15.75 19.5H10.75C10.75 18.125 9.625 17 8.25 17C6.875 17 5.75 18.125 5.75 19.5H4.5C2.425 19.5 0.75 17.825 0.75 15.75V12H14.5C15.875 12 17 10.875 17 9.5V0.75H19.3C20.2 0.75 21.025 1.23751 21.475 2.01251L23.6125 5.75H22C21.3125 5.75 20.75 6.3125 20.75 7V10.75C20.75 11.4375 21.3125 12 22 12H25.75Z" stroke="white" stroke-width="1.5" stroke-linecap="round" stroke-linejoin="round"/>
</svg>
