<svg width="21" height="21" viewBox="0 0 21 21" fill="none" xmlns="http://www.w3.org/2000/svg">
<path d="M9.4715 12.8143L7.88578 14.4C7.5515 14.7343 7.02007 14.7343 6.67721 14.4086C6.58293 14.3143 6.48864 14.2286 6.39436 14.1343C5.5115 13.2429 4.71436 12.3086 4.00293 11.3314C3.30007 10.3543 2.73436 9.37714 2.32293 8.40857C1.92007 7.43142 1.71436 6.49714 1.71436 5.60571C1.71436 5.02285 1.81721 4.46571 2.02293 3.95142C2.22864 3.42857 2.55436 2.94857 3.00864 2.51999C3.55721 1.97999 4.15721 1.71428 4.7915 1.71428C5.0315 1.71428 5.2715 1.76571 5.48578 1.86856C5.70864 1.97142 5.90578 2.12571 6.06007 2.34856L8.04864 5.15142C8.20293 5.36571 8.31436 5.56285 8.3915 5.75142C8.46864 5.93142 8.5115 6.11142 8.5115 6.27428C8.5115 6.47999 8.4515 6.68571 8.3315 6.88285C8.22007 7.07999 8.05721 7.28571 7.8515 7.49142L7.20007 8.16856C7.10578 8.26285 7.06293 8.37428 7.06293 8.51142C7.06293 8.57999 7.0715 8.63999 7.08864 8.70856C7.11436 8.77714 7.14007 8.82856 7.15721 8.87999C7.3115 9.16285 7.57721 9.53142 7.95436 9.97714C8.34007 10.4229 8.7515 10.8771 9.19721 11.3314C9.28293 11.4171 9.37721 11.5029 9.46293 11.5886C9.80578 11.9229 9.81436 12.4714 9.4715 12.8143Z" fill="white"/>
<path d="M18.8314 15.7114C18.8314 15.9514 18.7885 16.2 18.7028 16.44C18.6771 16.5086 18.6514 16.5771 18.6171 16.6457C18.4714 16.9543 18.2828 17.2457 18.0342 17.52C17.6142 17.9829 17.1514 18.3171 16.6285 18.5314C16.6199 18.5314 16.6114 18.54 16.6028 18.54C16.0971 18.7457 15.5485 18.8571 14.9571 18.8571C14.0828 18.8571 13.1485 18.6514 12.1628 18.2314C11.1771 17.8114 10.1914 17.2457 9.21423 16.5343C8.87994 16.2857 8.54566 16.0371 8.22852 15.7714L11.0314 12.9686C11.2714 13.1486 11.4857 13.2857 11.6657 13.38C11.7085 13.3971 11.7599 13.4229 11.8199 13.4486C11.8885 13.4743 11.9571 13.4829 12.0342 13.4829C12.1799 13.4829 12.2914 13.4314 12.3857 13.3371L13.0371 12.6943C13.2514 12.48 13.4571 12.3171 13.6542 12.2143C13.8514 12.0943 14.0485 12.0343 14.2628 12.0343C14.4257 12.0343 14.5971 12.0686 14.7857 12.1457C14.9742 12.2229 15.1714 12.3343 15.3857 12.48L18.2228 14.4943C18.4457 14.6486 18.5999 14.8286 18.6942 15.0429C18.7799 15.2571 18.8314 15.4714 18.8314 15.7114Z" fill="white"/>
</svg>
