<svg width="27" height="27" viewBox="0 0 27 27" fill="none" xmlns="http://www.w3.org/2000/svg">
<path d="M5.0775 21.3V17.65C5.0775 16.4375 6.0275 15.35 7.3775 15.35C8.59 15.35 9.6775 16.3 9.6775 17.65V21.1625C9.6775 23.6 7.6525 25.625 5.215 25.625C2.7775 25.625 0.752501 23.5875 0.752501 21.1625V13.4625C0.615001 6.4375 6.165 0.75 13.19 0.75C20.215 0.75 25.7525 6.4375 25.7525 13.325V21.025C25.7525 23.4625 23.7275 25.4875 21.29 25.4875C18.8525 25.4875 16.8275 23.4625 16.8275 21.025V17.5125C16.8275 16.3 17.7775 15.2125 19.1275 15.2125C20.34 15.2125 21.4275 16.1625 21.4275 17.5125V21.3" stroke="white" stroke-width="1.5" stroke-linecap="round" stroke-linejoin="round"/>
</svg>
