<svg width="16" height="18" viewBox="0 0 16 18" fill="none" xmlns="http://www.w3.org/2000/svg">
<path d="M15 5.74286C14.1 1.78286 10.6457 0 7.61141 0C7.61141 0 7.61141 0 7.60284 0C4.57712 0 1.11427 1.77429 0.214267 5.73429C-0.78859 10.1571 1.91998 13.9029 4.37141 16.26C5.27998 17.1343 6.4457 17.5714 7.61141 17.5714C8.77712 17.5714 9.94284 17.1343 10.8428 16.26C13.2943 13.9029 16.0028 10.1657 15 5.74286ZM7.61141 10.0371C6.11998 10.0371 4.91141 8.82857 4.91141 7.33714C4.91141 5.84571 6.11998 4.63714 7.61141 4.63714C9.10284 4.63714 10.3114 5.84571 10.3114 7.33714C10.3114 8.82857 9.10284 10.0371 7.61141 10.0371Z" fill="white"/>
</svg>
